M48
; DRILL file {KiCad (5.1.5)-3} date 4/13/2020 12:29:32 PM
; FORMAT={-:-/ absolute / metric / decimal}
; #@! TF.CreationDate,2020-04-13T12:29:32+02:00
; #@! TF.GenerationSoftware,Kicad,Pcbnew,(5.1.5)-3
; #@! TF.FileFunction,Plated,1,2,PTH
FMAT,2
METRIC
T1C0.200
%
G90
G05
T1
X150.08Y-65.22
X150.08Y-65.86
X150.08Y-66.48
X150.08Y-67.12
X150.08Y-67.76
X150.08Y-68.38
X150.08Y-69.02
X150.08Y-69.66
X150.08Y-70.28
X150.08Y-70.92
X150.08Y-71.56
X150.08Y-72.18
X150.08Y-72.82
X150.12Y-83.66
X150.12Y-84.31
X150.12Y-84.9
X150.12Y-85.56
X150.12Y-86.21
X150.12Y-86.8
X150.12Y-87.46
X150.12Y-88.11
X150.12Y-88.7
X150.12Y-89.36
X150.58Y-65.22
X150.58Y-67.12
X150.58Y-69.02
X150.58Y-70.92
X150.58Y-72.82
X150.62Y-83.66
X150.62Y-85.56
X150.62Y-87.46
X150.62Y-89.36
X151.08Y-65.22
X151.08Y-67.12
X151.08Y-69.02
X151.08Y-70.92
X151.08Y-72.82
X151.12Y-83.66
X151.12Y-85.56
X151.12Y-87.46
X151.12Y-89.36
X151.58Y-65.22
X151.58Y-67.12
X151.58Y-69.02
X151.58Y-70.92
X151.58Y-72.82
X151.62Y-83.66
X151.62Y-85.56
X151.62Y-87.46
X151.62Y-89.36
X152.08Y-65.22
X152.08Y-67.12
X152.08Y-69.02
X152.08Y-70.92
X152.08Y-72.82
X152.12Y-83.66
X152.12Y-85.56
X152.12Y-87.46
X152.12Y-89.36
X152.58Y-65.22
X152.58Y-67.12
X152.58Y-69.02
X152.58Y-70.92
X152.58Y-72.82
X152.62Y-83.66
X152.62Y-85.56
X152.62Y-87.46
X152.62Y-89.36
X153.08Y-65.22
X153.08Y-67.12
X153.08Y-69.02
X153.08Y-70.92
X153.08Y-72.82
X153.12Y-83.66
X153.12Y-85.56
X153.12Y-87.46
X153.12Y-89.36
X153.58Y-65.22
X153.58Y-67.12
X153.58Y-69.02
X153.58Y-70.92
X153.58Y-72.82
X153.62Y-83.66
X153.62Y-85.56
X153.62Y-87.46
X153.62Y-89.36
X154.08Y-65.22
X154.08Y-67.12
X154.08Y-69.02
X154.08Y-70.92
X154.08Y-72.82
X154.12Y-83.66
X154.12Y-85.56
X154.12Y-87.46
X154.12Y-89.36
X154.58Y-65.22
X154.58Y-67.12
X154.58Y-69.02
X154.58Y-70.92
X154.58Y-72.82
X154.62Y-83.66
X154.62Y-85.56
X154.62Y-87.46
X154.62Y-89.36
X155.08Y-65.22
X155.08Y-67.12
X155.08Y-69.02
X155.08Y-70.92
X155.08Y-72.82
X155.12Y-83.66
X155.12Y-85.56
X155.12Y-87.46
X155.12Y-89.36
X155.58Y-65.22
X155.58Y-67.12
X155.58Y-69.02
X155.58Y-70.92
X155.58Y-72.82
X155.62Y-83.66
X155.62Y-85.56
X155.62Y-87.46
X155.62Y-89.36
X156.08Y-65.22
X156.08Y-67.12
X156.08Y-69.02
X156.08Y-70.92
X156.08Y-72.82
X156.12Y-83.66
X156.12Y-85.56
X156.12Y-87.46
X156.12Y-89.36
X156.58Y-65.22
X156.58Y-67.12
X156.58Y-69.02
X156.58Y-70.92
X156.58Y-72.82
X156.62Y-83.66
X156.62Y-85.56
X156.62Y-87.46
X156.62Y-89.36
X157.08Y-65.22
X157.08Y-67.12
X157.08Y-69.02
X157.08Y-70.92
X157.08Y-72.82
X157.12Y-83.66
X157.12Y-85.56
X157.12Y-87.46
X157.12Y-89.36
X157.58Y-65.22
X157.58Y-67.12
X157.58Y-69.02
X157.58Y-70.92
X157.58Y-72.82
X157.62Y-83.66
X157.62Y-85.56
X157.62Y-87.46
X157.62Y-89.36
X158.08Y-65.22
X158.08Y-67.12
X158.08Y-69.02
X158.08Y-70.92
X158.08Y-72.82
X158.12Y-83.66
X158.12Y-85.56
X158.12Y-87.46
X158.12Y-89.36
X158.58Y-65.22
X158.58Y-67.12
X158.58Y-69.02
X158.58Y-70.92
X158.58Y-72.82
X158.62Y-83.66
X158.62Y-85.56
X158.62Y-87.46
X158.62Y-89.36
X159.08Y-65.22
X159.08Y-67.12
X159.08Y-69.02
X159.08Y-70.92
X159.08Y-72.82
X159.12Y-83.66
X159.12Y-85.56
X159.12Y-87.46
X159.12Y-89.36
X159.58Y-65.22
X159.58Y-67.12
X159.58Y-69.02
X159.58Y-70.92
X159.58Y-72.82
X159.62Y-83.66
X159.62Y-85.56
X159.62Y-87.46
X159.62Y-89.36
X160.08Y-65.22
X160.08Y-67.12
X160.08Y-69.02
X160.08Y-70.92
X160.08Y-72.82
X160.12Y-83.66
X160.12Y-85.56
X160.12Y-87.46
X160.12Y-89.36
X160.58Y-65.22
X160.58Y-67.12
X160.58Y-69.02
X160.58Y-70.92
X160.58Y-72.82
X160.62Y-83.66
X160.62Y-85.56
X160.62Y-87.46
X160.62Y-89.36
X161.08Y-65.22
X161.08Y-67.12
X161.08Y-69.02
X161.08Y-70.92
X161.08Y-72.82
X161.12Y-83.66
X161.12Y-85.56
X161.12Y-87.46
X161.12Y-89.36
X161.58Y-65.22
X161.58Y-67.12
X161.58Y-69.02
X161.58Y-70.92
X161.58Y-72.82
X161.62Y-83.66
X161.62Y-85.56
X161.62Y-87.46
X161.62Y-89.36
X162.08Y-65.22
X162.08Y-67.12
X162.08Y-69.02
X162.08Y-70.92
X162.08Y-72.82
X162.12Y-83.66
X162.12Y-85.56
X162.12Y-87.46
X162.12Y-89.36
X162.58Y-65.22
X162.58Y-67.12
X162.58Y-69.02
X162.58Y-70.92
X162.58Y-72.82
X162.62Y-83.66
X162.62Y-85.56
X162.62Y-87.46
X162.62Y-89.36
X163.08Y-65.22
X163.08Y-67.12
X163.08Y-69.02
X163.08Y-70.92
X163.08Y-72.82
X163.12Y-83.66
X163.12Y-85.56
X163.12Y-87.46
X163.12Y-89.36
X163.58Y-65.22
X163.58Y-67.12
X163.58Y-69.02
X163.58Y-70.92
X163.58Y-72.82
X163.62Y-83.66
X163.62Y-85.56
X163.62Y-87.46
X163.62Y-89.36
X164.08Y-65.22
X164.08Y-67.12
X164.08Y-69.02
X164.08Y-70.92
X164.08Y-72.82
X164.12Y-83.66
X164.12Y-85.56
X164.12Y-87.46
X164.12Y-89.36
X164.58Y-65.22
X164.58Y-67.12
X164.58Y-69.02
X164.58Y-70.92
X164.58Y-72.82
X164.62Y-83.66
X164.62Y-85.56
X164.62Y-87.46
X164.62Y-89.36
X165.08Y-65.22
X165.08Y-67.12
X165.08Y-69.02
X165.08Y-70.92
X165.08Y-72.82
X165.12Y-83.66
X165.12Y-85.56
X165.12Y-87.46
X165.12Y-89.36
X165.58Y-65.22
X165.58Y-67.12
X165.58Y-69.02
X165.58Y-70.92
X165.58Y-72.82
X165.62Y-83.66
X165.62Y-85.56
X165.62Y-87.46
X165.62Y-89.36
X166.08Y-65.22
X166.08Y-67.12
X166.08Y-69.02
X166.08Y-70.92
X166.08Y-72.82
X166.12Y-83.66
X166.12Y-85.56
X166.12Y-87.46
X166.12Y-89.36
X166.58Y-65.22
X166.58Y-67.12
X166.58Y-69.02
X166.58Y-70.92
X166.58Y-72.82
X166.62Y-83.66
X166.62Y-85.56
X166.62Y-87.46
X166.62Y-89.36
X167.08Y-65.22
X167.08Y-67.12
X167.08Y-69.02
X167.08Y-70.92
X167.08Y-72.82
X167.12Y-83.66
X167.12Y-85.56
X167.12Y-87.46
X167.12Y-89.36
X167.58Y-65.22
X167.58Y-67.12
X167.58Y-69.02
X167.58Y-70.92
X167.58Y-72.82
X167.62Y-83.66
X167.62Y-85.56
X167.62Y-87.46
X167.62Y-89.36
X168.08Y-65.22
X168.08Y-67.12
X168.08Y-69.02
X168.08Y-70.92
X168.08Y-72.82
X168.12Y-83.66
X168.12Y-85.56
X168.12Y-87.46
X168.12Y-89.36
X168.58Y-65.22
X168.58Y-67.12
X168.58Y-69.02
X168.58Y-70.92
X168.58Y-72.82
X168.62Y-83.66
X168.62Y-85.56
X168.62Y-87.46
X168.62Y-89.36
X169.08Y-65.22
X169.08Y-67.12
X169.08Y-69.02
X169.08Y-70.92
X169.08Y-72.82
X169.12Y-83.66
X169.12Y-85.56
X169.12Y-87.46
X169.12Y-89.36
X169.58Y-65.22
X169.58Y-67.12
X169.58Y-69.02
X169.58Y-70.92
X169.58Y-72.82
X169.62Y-83.66
X169.62Y-85.56
X169.62Y-87.46
X169.62Y-89.36
X170.08Y-65.22
X170.08Y-67.12
X170.08Y-69.02
X170.08Y-70.92
X170.08Y-72.82
X170.12Y-83.66
X170.12Y-85.56
X170.12Y-87.46
X170.12Y-89.36
X170.58Y-65.22
X170.58Y-67.12
X170.58Y-69.02
X170.58Y-70.92
X170.58Y-72.82
X170.62Y-83.66
X170.62Y-85.56
X170.62Y-87.46
X170.62Y-89.36
X171.08Y-65.22
X171.08Y-67.12
X171.08Y-69.02
X171.08Y-70.92
X171.08Y-72.82
X171.12Y-83.66
X171.12Y-85.56
X171.12Y-87.46
X171.12Y-89.36
X171.58Y-65.22
X171.58Y-67.12
X171.58Y-69.02
X171.58Y-70.92
X171.58Y-72.82
X171.62Y-83.66
X171.62Y-85.56
X171.62Y-87.46
X171.62Y-89.36
X172.08Y-65.22
X172.08Y-67.12
X172.08Y-69.02
X172.08Y-70.92
X172.08Y-72.82
X172.12Y-83.66
X172.12Y-85.56
X172.12Y-87.46
X172.12Y-89.36
X172.58Y-65.22
X172.58Y-67.12
X172.58Y-69.02
X172.58Y-70.92
X172.58Y-72.82
X172.62Y-83.66
X172.62Y-85.56
X172.62Y-87.46
X172.62Y-89.36
X173.08Y-65.22
X173.08Y-67.12
X173.08Y-69.02
X173.08Y-70.92
X173.08Y-72.82
X173.12Y-83.66
X173.12Y-85.56
X173.12Y-87.46
X173.12Y-89.36
X173.58Y-65.22
X173.58Y-67.12
X173.58Y-69.02
X173.58Y-70.92
X173.58Y-72.82
X173.62Y-83.66
X173.62Y-85.56
X173.62Y-87.46
X173.62Y-89.36
X174.08Y-65.22
X174.08Y-67.12
X174.08Y-69.02
X174.08Y-70.92
X174.08Y-72.82
X174.12Y-83.66
X174.12Y-85.56
X174.12Y-87.46
X174.12Y-89.36
X174.58Y-65.22
X174.58Y-67.12
X174.58Y-69.02
X174.58Y-70.92
X174.58Y-72.82
X174.62Y-83.66
X174.62Y-85.56
X174.62Y-87.46
X174.62Y-89.36
X97.8Y-70.0
X97.8Y-71.5
X97.8Y-73.0
X97.8Y-74.5
X97.8Y-76.0
X97.8Y-78.0
X97.8Y-79.5
X97.8Y-81.0
X97.8Y-82.5
X97.8Y-84.0
X98.8Y-69.0
X98.8Y-77.0
X98.8Y-85.0
X100.3Y-69.0
X100.3Y-85.0
X100.4Y-73.0
X100.4Y-81.0
X101.8Y-69.0
X101.8Y-85.0
X103.3Y-69.0
X103.3Y-77.0
X103.3Y-85.0
X104.8Y-69.0
X104.8Y-77.0
X104.8Y-85.0
X105.8Y-70.0
X105.8Y-71.5
X105.8Y-73.0
X105.8Y-74.5
X105.8Y-76.0
X105.8Y-81.0
X105.8Y-82.5
X106.8Y-69.0
X106.8Y-85.0
X108.3Y-69.0
X108.3Y-85.0
X108.4Y-73.0
X108.4Y-81.0
X109.8Y-69.0
X109.8Y-77.0
X109.8Y-85.0
X111.3Y-69.0
X111.3Y-77.0
X112.8Y-69.0
X112.8Y-77.0
X113.8Y-70.0
X113.8Y-71.5
X113.8Y-73.0
X113.8Y-74.5
X113.8Y-76.0
X113.8Y-78.0
X113.8Y-79.5
X113.8Y-81.0
X113.8Y-82.5
X114.8Y-69.0
X114.8Y-77.0
X114.8Y-85.0
X116.3Y-69.0
X116.3Y-85.0
X116.4Y-73.0
X116.4Y-81.0
X117.8Y-69.0
X117.8Y-85.0
X119.3Y-69.0
X119.3Y-77.0
X119.3Y-85.0
X120.8Y-69.0
X120.8Y-77.0
X120.8Y-85.0
X121.8Y-70.0
X121.8Y-71.5
X121.8Y-73.0
X121.8Y-74.5
X121.8Y-76.0
X121.8Y-81.0
X121.8Y-82.5
X121.8Y-84.0
X122.8Y-69.0
X122.8Y-85.0
X124.3Y-69.0
X124.3Y-85.0
X124.4Y-73.0
X124.4Y-81.0
X125.8Y-69.0
X125.8Y-77.0
X125.8Y-85.0
X127.3Y-69.0
X127.3Y-77.0
X127.3Y-85.0
X128.8Y-69.0
X128.8Y-77.0
X128.8Y-85.0
X129.8Y-70.0
X129.8Y-71.5
X129.8Y-73.0
X129.8Y-74.5
X129.8Y-76.0
X129.8Y-78.0
X129.8Y-79.5
X129.8Y-81.0
X129.8Y-82.5
X129.8Y-84.0
T0
M30
